<?xml version="1.0" standalone="no"?>
<!DOCTYPE svg PUBLIC "-//W3C//DTD SVG 20010904//EN"
 "http://www.w3.org/TR/2001/REC-SVG-20010904/DTD/svg10.dtd">
<svg version="1.0" xmlns="http://www.w3.org/2000/svg"
 width="512.000000pt" height="512.000000pt" viewBox="0 0 512.000000 512.000000"
 preserveAspectRatio="xMidYMid meet">
<metadata>
Created by potrace 1.14, written by Peter Selinger 2001-2017
</metadata>
<g transform="translate(0.000000,512.000000) scale(0.100000,-0.100000)"
fill="#000000" stroke="none">
<path d="M3026 3799 c-178 -29 -394 -159 -502 -302 -57 -75 -108 -180 -130
-267 -20 -80 -14 -208 14 -293 37 -110 141 -231 248 -289 67 -36 187 -68 257
-68 53 0 62 3 87 30 56 60 105 254 84 337 l-9 38 -122 11 c-193 18 -300 59
-350 132 -27 41 -39 112 -24 140 21 39 77 72 157 92 107 28 336 43 439 30 256
-32 399 -236 399 -570 0 -145 -21 -244 -72 -329 -72 -123 -208 -219 -369 -262
-102 -28 -351 -31 -458 -6 -229 52 -553 224 -815 433 -47 37 -145 128 -218
201 -123 123 -135 133 -170 133 -75 0 -190 -109 -206 -195 -9 -49 7 -75 131
-212 252 -279 399 -409 585 -519 387 -228 837 -255 1202 -72 390 196 662 561
692 927 7 91 -8 244 -37 361 -68 275 -247 465 -484 515 -75 16 -248 18 -329 4z"/>
<path d="M1316 2269 c-61 -53 -97 -200 -64 -262 19 -37 284 -312 371 -385 198
-167 382 -256 615 -298 118 -21 396 -21 517 1 161 29 381 114 519 203 137 87
298 237 491 457 107 121 127 162 123 248 -5 101 -16 96 -230 -107 -266 -253
-366 -329 -531 -406 -259 -119 -623 -119 -952 2 -214 78 -399 210 -626 447
-116 121 -128 131 -162 131 -26 0 -46 -8 -71 -31z"/>
</g>
</svg>
